#!OML:ASF X:\für Bonn\!DataBase\2005_08_10_Bjorn_Final\c3d\bjorn.ASF
:FULLY-SPECIFIED
:DEGREES
183
root -14.0513 18.5149 -0.748197 -363.271 398.6 -372.754
lowerback 0.0409684 -0.501186 6.71684
upperback 9.71543 -0.943865 0.434991
thorax 10.2495 0.152509 -3.3549
lowerneck -10.6698 2.65532 4.01782
upperneck 0.1524 3.13598 -2.07606
head 1.99221 1.53124 -1.2025
rclavicle -5.56597e-015 2.70347e-014
rhumerus -57.5282 5.47917 -92.5772
rradius 58.2418
rwrist -2.79056
rhand -27.2023 26.3342
rfingers 7.12502
rthumb -0.615496 -3.64468
lclavicle -5.56597e-015 2.70347e-014
lhumerus -13.8538 -30.0898 89.4993
lradius 109.327
lwrist -0.0442354
lhand -53.6799 -28.9725
lfingers 7.12502
lthumb -26.1169 -0.748489
rfemur -38.3601 -4.56138 14.1841
rtibia 67.9517
rfoot -5.60909 7.32327
rtoes -27.4282
lfemur 1.62783 -1.78129 -27.2747
ltibia 30.4347
lfoot -9.86662 -8.96977
ltoes 13.2627
184
root -13.8673 18.6118 -0.547597 -363.361 399.55 -373.072
lowerback -0.085184 -0.869277 6.62091
upperback 9.54458 -1.46554 0.760274
thorax 10.0785 -0.138402 -2.99749
lowerneck -10.2979 2.86247 3.80654
upperneck 0.258508 3.4599 -2.32956
head 1.97233 1.68616 -1.23345
rclavicle -7.11649e-014 1.74931e-014
rhumerus -58.0647 5.87004 -92.2998
rradius 59.2603
rwrist -3.01474
rhand -27.3203 26.0059
rfingers 7.12502
rthumb -0.729466 -3.97256
lclavicle -7.11649e-014 1.74931e-014
lhumerus -14.5464 -30.5204 89.7303
lradius 109.205
lwrist -0.0861116
lhand -53.7923 -29.1933
lfingers 7.12502
lthumb -26.2245 -0.985262
rfemur -38.4218 -4.40249 14.5414
rtibia 64.5767
rfoot -5.54085 7.39623
rtoes -28.3696
lfemur 2.93032 -1.70453 -26.7515
ltibia 29.074
lfoot -7.53803 -9.55159
ltoes 13.419
185
root -13.6792 18.7059 -0.346908 -363.548 400.49 -373.531
lowerback -0.211876 -1.219 6.63158
upperback 9.36762 -1.97071 1.13803
thorax 9.91329 -0.413788 -2.64236
lowerneck -9.93589 3.04104 3.52121
upperneck 0.360437 3.75187 -2.561
head 1.94935 1.82567 -1.2465
rclavicle 5.32743e-014 0
rhumerus -58.5879 6.20257 -91.9313
rradius 60.3658
rwrist -3.39035
rhand -27.4504 25.7441
rfingers 7.12502
rthumb -0.855096 -4.23393
lclavicle 5.32743e-014 0
lhumerus -15.3318 -30.9865 90.0775
lradius 109.028
lwrist -0.177693
lhand -53.8985 -29.21
lfingers 7.12502
lthumb -26.3261 -1.01702
rfemur -38.3863 -4.2852 15.0291
rtibia 61.0758
rfoot -5.43121 7.70683
rtoes -30.7404
lfemur 4.06372 -1.58143 -26.0742
ltibia 27.9647
lfoot -5.12958 -10.0954
ltoes 13.4945
186
root -13.489 18.7965 -0.146018 -363.778 401.436 -374.037
lowerback -0.355693 -1.5649 6.70779
upperback 9.17955 -2.47359 1.50872
thorax 9.75298 -0.681585 -2.332
lowerneck -9.5265 3.21371 3.21514
upperneck 0.462069 4.03627 -2.75598
head 1.91564 1.96279 -1.24575
rclavicle -9.81996e-014 3.18055e-015
rhumerus -59.1459 6.45889 -91.5345
rradius 61.579
rwrist -3.83233
rhand -27.6564 25.5301
rfingers 7.12502
rthumb -1.05403 -4.44706
lclavicle -9.81996e-014 3.18055e-015
lhumerus -16.2031 -31.4387 90.4739
lradius 108.783
lwrist -0.266972
lhand -53.9814 -29.2414
lfingers 7.12502
lthumb -26.4055 -1.06038
rfemur -38.1994 -4.29433 15.5184
rtibia 57.4612
rfoot -5.09032 8.63581
rtoes -33.3023
lfemur 4.96863 -1.3757 -25.342
ltibia 27.1316
lfoot -2.79537 -10.5838
ltoes 12.2807
